<svg width="400px" height="400px" viewBox="0 0 400 400" version="1.1" xmlns="http://www.w3.org/2000/svg" xmlns:xlink="http://www.w3.org/1999/xlink">
    <title>Hinged Left</title>
    <g id="Hinged-Left" stroke="none" stroke-width="1" fill="none" fill-rule="evenodd">
        <polygon id="Glass" fill-opacity="0.7" fill="#C4F1EF" points="265 42 265 357 135 357 135 42"></polygon>
        <path d="M265,42 L265,357 L135,357 L135,42 L265,42 Z M263,44 L137,44 L137,355 L263,355 L263,44 Z" id="Glass-Edge" fill="#9CE3E0" fill-rule="nonzero"></path>
        <path d="M141,308 L141,323 L135,323 L135,308 L141,308 Z M255,188 L255,211 L252,211 L252,188 L255,188 Z M141,76 L141,91 L135,91 L135,76 L141,76 Z" id="Hardware" fill="#666666"></path>
        <path d="M170.984945,205.198992 C172.818353,207.032399 172.818351,209.994852 170.984945,211.828258 L161.041045,221.772158 C158.451488,224.361715 155.101381,225.729783 151.708223,225.876362 L151.300884,225.888088 L150.893407,225.888088 C147.362135,225.837274 143.846385,224.465297 141.153245,221.772158 L109.384556,190.003468 L109.384556,205.209347 C109.384556,207.709609 107.424352,209.75603 104.958362,209.894189 L104.69228,209.901624 C102.102722,209.901624 100,207.798901 100,205.209344 L100,178.692278 C100,176.102721 102.102721,174 104.692278,174 L131.209344,174 C133.798901,174 135.901624,176.102722 135.901624,178.69228 C135.901624,181.192542 133.941418,183.238964 131.475428,183.377123 L131.209346,183.384558 L116.013823,183.374202 L147.782512,215.142891 C148.699216,216.059595 149.898181,216.517947 151.097146,216.517947 L151.373702,216.50981 C152.478897,216.444719 153.565591,215.989079 154.411778,215.142891 L164.355678,205.198992 C166.189084,203.365585 169.151537,203.365584 170.984945,205.198992 Z" id="Arrow" fill="#1D59A0" fill-rule="nonzero"></path>
    </g>
</svg>