<svg width="400px" height="400px" viewBox="0 0 400 400" version="1.1" xmlns="http://www.w3.org/2000/svg" xmlns:xlink="http://www.w3.org/1999/xlink">
    <title>Hinged Right</title>
    <g id="Hinged-Right" stroke="none" stroke-width="1" fill="none" fill-rule="evenodd">
        <polygon id="Glass" fill-opacity="0.7" fill="#C4F1EF" points="265 42 265 357 135 357 135 42"></polygon>
        <path d="M265,42 L265,357 L135,357 L135,42 L265,42 Z M263,44 L137,44 L137,355 L263,355 L263,44 Z" id="Glass-Edge" fill="#9CE3E0" fill-rule="nonzero"></path>
        <path d="M292.667722,173 C295.257279,173 297.36,175.102721 297.36,177.692278 L297.36,204.209344 C297.36,206.798901 295.257278,208.901624 292.66772,208.901624 C290.078163,208.901624 287.975444,206.798904 287.975444,204.209347 L287.975444,189.003468 L256.206755,220.772158 C253.617197,223.361715 250.26709,224.729783 246.873933,224.876362 L246.466593,224.888088 L246.059116,224.888088 C242.527845,224.837274 239.012095,223.465297 236.318955,220.772158 L226.375055,210.828258 C224.541649,208.994852 224.541647,206.032399 226.375055,204.198992 C227.291759,203.282288 228.490724,202.823936 229.689689,202.823936 L229.966245,202.832073 C231.07144,202.897164 232.158134,203.352804 233.004322,204.198992 L242.948222,214.142891 C243.864925,215.059594 245.063889,215.517946 246.262854,215.517947 L246.53941,215.50981 C247.644605,215.444719 248.7313,214.98908 249.577488,214.142891 L281.346177,182.374202 L266.150654,182.384558 C263.561097,182.384558 261.458376,180.281837 261.458376,177.69228 C261.458376,175.102722 263.561099,173 266.150656,173 L292.667722,173 Z" id="Arrow-Bend-Right" fill="#1D59A0" fill-rule="nonzero"></path>
        <path d="M145,188 L148,188 L148,211 L145,211 L145,188 Z M259,76 L265,76 L265,91 L259,91 L259,76 Z M259,308 L265,308 L265,323 L259,323 L259,308 Z" id="Hardware" fill="#666666"></path>
    </g>
</svg>